<svg version="1" xmlns="http://www.w3.org/2000/svg" width="864" height="864" viewBox="0 0 648.000000 648.000000"><path d="M316.2 60.2c-.8.8-1.2 5.1-1.2 12.8 0 10.3-.2 11.6-1.7 11.6-2.1.1-7.1 1.1-12.8 2.5-2.2.5-5.1 1.2-6.5 1.5-1.4.2-3.4.8-4.5 1.1-1.1.4-2.5.8-3 .9-1.9.3-22 6.7-23.5 7.4-.8.4-4.2 1.8-7.5 3-6.1 2.3-23.4 10.1-26.9 12.1-1.1.6-4 2.3-6.5 3.7-2.5 1.4-6.2 3.5-8.1 4.7-1.9 1.2-4.3 2.4-5.2 2.8-1 .3-1.8 1.1-1.8 1.7 0 .5-.7 1-1.5 1s-2.3.9-3.2 2c-1 1.1-2.1 2-2.6 2-.7 0-7.9 5.2-9.7 7-.3.3-2.7 2.3-5.5 4.4-10.8 8.6-37.5 37.3-37.5 40.4 0 .5-.7 1.5-1.5 2.2-1.9 1.6-13.4 20.9-16.9 28.5-4.2 8.9-9.6 22.1-9.9 24.2-.1 1-.6 2.3-1 2.9-.8 1.4-6.6 23.4-7.3 28.3-.3 1.8-.8 4.3-1 5.5-1.5 6.7-2.8 19.5-2.9 28.1 0 7.5.1 8 2.2 8.3 1.3.2 3.5-.5 5-1.6 4-2.8 17.7-9.2 19.7-9.2 1 0 2.7-.5 3.9-1.2 2.9-1.5 19-2 25.2-.6 10.4 2.2 20.5 7.8 29.7 16.6 5.4 5.2 4.6 5.2 20.2-.8 6-2.3 11.7-4.3 12.7-4.5 1-.2 2.6-.8 3.6-1.3 1-.6 3.2-1.2 4.8-1.5 1.7-.3 6.4-1.5 10.5-2.6s9-2.2 10.8-2.5c3.3-.6 7.1-1.3 12-2.1 3.4-.5 11.8-1.7 15.7-2.1 7.5-.8 27.9-1.8 31.2-1.5 1 .1 1.3 25.7 1.3 120.3 0 122.9 0 121.2-3.3 133.3-1.6 5.6-8.9 13.4-15.6 16.7-6.5 3.2-18.7 3.2-25.1.1-4.6-2.3-10.5-7.3-12.8-10.9-1.3-2-3.5-6.9-3.1-6.9.1 0-.3-1-.9-2.2-.6-1.1-1.4-4.5-1.7-7.5-1.1-10.4-1.9-12-5.6-11.1-5.5 1.5-3.1 19.3 4.2 30.9 5.1 8.2 14.1 15.1 22.1 17.1 5.3 1.3 14.8 1.4 18.9.2 2.4-.7 5-1.4 5.7-1.5 2.5-.5 9.7-5.6 13.5-9.7 4.9-5.2 9.2-14.5 10.6-22.8.8-4.6 1.1-43.1 1.1-126.3V296l10.8.5c5.9.3 12.3.8 14.2 1 1.9.2 5.5.7 8 1 9 1.1 10.7 1.4 20 3 7.3 1.2 32.9 7.5 40.5 9.8 5.9 1.9 12 3.9 16.5 5.6 7.2 2.7 8.4 2.7 11.2-.8 3.4-4 14.1-11.7 19.7-14.2 16.9-7.5 38.2-5.6 56.1 5 12.4 7.4 13.1 6.2 10.5-18.9-.7-7.4-5.1-29.8-6.6-33.7-.5-1.3-.7-2.3-.4-2.3 1 0-8.9-26.8-13.2-35.8-2.5-5.3-4.7-10-4.7-10.4-.1-.4-.7-1.3-1.3-1.9-.7-.7-1.3-1.7-1.3-2.1 0-1.5-11.1-18-17.9-26.8-8.1-10.5-24-26.4-34.6-34.8-4.4-3.5-8.8-7-9.8-7.8-.9-.8-2.1-1.4-2.6-1.4-.4 0-1.6-.9-2.6-2s-2.4-2-3-2c-.7 0-1.8-.7-2.5-1.5-2.5-3.1-30-17.4-44-23-5.2-2-10.4-4.1-11.5-4.6-4.4-1.8-27.4-8.8-32-9.6-1.1-.2-3.6-.8-5.5-1.3s-5.1-1.2-7-1.5c-7.4-1.2-7-.6-7-12.1 0-5.8-.5-11.4-1-12.5-1.2-2.1-4-2.5-5.8-.7z"/></svg>