<?xml-stylesheet type="text/css" href="css/style.css"?>
<svg width="80" height="80" xmlns="http://www.w3.org/2000/svg" viewBox="0 0 100 100" preserveAspectRatio="xMidYMid" class="lds-cloudy" style="background:0 0">
    <g transform="translate(0 18)">
        <path id="cloud1" d="M50.21 30.3c.4-1.3.6-2.7.6-4.2 0-1.2-.1-2.3-.4-3.4-1.5-6-7-10.5-13.5-10.5-5.3 0-9.9 3-12.3 7.4-.9-.3-1.8-.4-2.8-.4-5.1 0-9.3 4.1-9.3 9.3 0 .6.1 1.3.2 1.9-4.7.7-8.3 4.8-8.3 9.7 0 5.4 4.4 9.8 9.8 9.8h34.2c3.8 0 7.1-2.2 8.8-5.4.7-1.3 1.1-2.9 1.1-4.5.1-4.8-3.5-8.9-8.1-9.7z" fill="#a9a9a9">
            <animateTransform attributeName="transform" type="translate" values="-3 0;3 0;-3 0" keyTimes="0;0.5;1" repeatCount="indefinite" calcMode="spline" keySplines="0.5 0 0.5 1;0.5 0 0.5 1" dur="2"/>
        </path>
        <defs>
            <clipPath id="b">
                <use href="#a"/>
            </clipPath>
            <path id="a" d="M0 0v100h100V0H0zm62.9 44.4c-1.7 3.4-5.3 5.8-9.4 5.8H17c-5.8 0-10.5-4.7-10.5-10.5 0-5.2 3.8-9.6 8.9-10.4-.1-.6-.2-1.3-.2-2 0-5.5 4.4-9.9 9.9-9.9 1 0 2 .2 3 .5 2.5-4.7 7.4-7.9 13.1-7.9 6.9 0 12.8 4.8 14.4 11.2.3 1.2.4 2.4.4 3.6 0 1.6-.2 3.1-.7 4.5 5 .8 8.7 5.2 8.7 10.3 0 1.7-.4 3.4-1.1 4.8z" transform="translate(-2.99)">
                <animateTransform attributeName="transform" type="translate" values="-3 0;3 0;-3 0" keyTimes="0;0.5;1" repeatCount="indefinite" calcMode="spline" keySplines="0.5 0 0.5 1;0.5 0 0.5 1" dur="2"/>
            </path>
        </defs>
        <g clip-path="url(#b)">
            <path id="cloud2" d="M87.897 28.9c.4-1.1.6-2.3.6-3.5 0-1-.1-1.9-.4-2.8-1.3-5-6.1-8.7-11.8-8.7-4.6 0-8.7 2.5-10.7 6.1-.8-.2-1.6-.4-2.4-.4-4.5 0-8.1 3.4-8.1 7.6 0 .5.1 1 .2 1.5-4.1.6-7.2 4-7.2 8 0 4.5 3.8 8.1 8.6 8.1h29.8c3.3 0 6.2-1.8 7.7-4.4.6-1.1.9-2.3.9-3.7-.1-3.8-3.2-7.1-7.2-7.8z" fill="#d4d4d4">
                <animateTransform attributeName="transform" type="translate" values="-3 0;1.5 0;-3 0" keyTimes="0;0.5;1" repeatCount="indefinite" calcMode="spline" keySplines="0.5 0 0.5 1;0.5 0 0.5 1" dur="1.32"/>
            </path>
        </g>
    </g>
</svg>
