<?xml-stylesheet type="text/css" href="css/style.css"?>
<svg version="1.1" xmlns="http://www.w3.org/2000/svg" xmlns:xlink="http://www.w3.org/1999/xlink" x="0px" y="0px"
	 viewBox="0 0 65 81.2" style="enable-background:new 0 0 65 81.2;" xml:space="preserve">
<g>
	<path id="handle" d="M31.8,7.9c0,0,0,50.8,0,58.7c0,7-8.9,6.9-8.9,0"/>
</g>
<g>
	<g>
		<path id="left" class="top" d="M5.6,38.5c0,0,5.9-4.6,11.1,1C17.6,11.4,31.8,11,31.8,11S6.9,13.8,5.6,38.5z"/>
	</g>
	<g>
	<path id="right" class="top" d="M58,38.5c0,0-5.9-4.6-11.1,1C46,11.4,31.8,11,31.8,11S56.7,13.8,58,38.5z"/>

	</g>
	<g>
		<path id="middle" class="top" d="M16.7,39.5c15.1-6.6,30.2,0,30.2,0C45.6,11.7,31.8,11,31.8,11h0C31.8,11,18,11.7,16.7,39.5"/>
	</g>
</g>
</svg>
